<?xml version="1.0" encoding="utf-8"?>
<!-- Generator: Adobe Illustrator 16.0.0, SVG Export Plug-In . SVG Version: 6.00 Build 0)  -->
<!DOCTYPE svg PUBLIC "-//W3C//DTD SVG 1.1//EN" "http://www.w3.org/Graphics/SVG/1.1/DTD/svg11.dtd">
<svg version="1.1" id="Layer_1" xmlns="http://www.w3.org/2000/svg" xmlns:xlink="http://www.w3.org/1999/xlink" x="0px" y="0px"
	 width="30px" height="30px" viewBox="0 0 30 30" enable-background="new 0 0 30 30" xml:space="preserve">
<path fill="#7294A4" d="M16.178,15L29.756,1.422C29.906,1.272,30,1.064,30,0.833C30,0.373,29.627,0,29.166,0
	c-0.229,0-0.438,0.094-0.589,0.244L15,13.822L1.422,0.244C1.271,0.094,1.063,0,0.833,0C0.372,0,0,0.373,0,0.833
	c0,0.231,0.092,0.439,0.244,0.59L13.82,15L0.244,28.578C0.092,28.729,0,28.936,0,29.167C0,29.627,0.372,30,0.833,30
	c0.229,0,0.438-0.094,0.589-0.244L15,16.178l13.577,13.578c0.15,0.15,0.359,0.244,0.589,0.244C29.627,30,30,29.627,30,29.167
	c0-0.231-0.094-0.438-0.244-0.589L16.178,15z"/>
</svg>
