<?xml version="1.0" encoding="utf-8"?>
<!-- Generator: Adobe Illustrator 16.0.0, SVG Export Plug-In . SVG Version: 6.00 Build 0)  -->
<!DOCTYPE svg PUBLIC "-//W3C//DTD SVG 1.1//EN" "http://www.w3.org/Graphics/SVG/1.1/DTD/svg11.dtd">
<svg version="1.1" id="Layer_1" xmlns="http://www.w3.org/2000/svg" xmlns:xlink="http://www.w3.org/1999/xlink" x="0px" y="0px"
	 width="145px" height="18px" viewBox="0 0 145 18" enable-background="new 0 0 145 18" xml:space="preserve">
<path fill="#D1D2D3" d="M75.158,4.883h1.102v9.396h-1.102v-1.857c-0.213,0.367-0.29,0.523-0.484,0.736
	c-0.791,0.906-1.952,1.41-3.267,1.41c-2.765,0-4.775-2.088-4.775-4.968c0-2.803,2.088-5.007,4.775-5.007
	c1.238,0,2.397,0.484,3.19,1.334c0.193,0.213,0.328,0.368,0.561,0.773V4.883z M67.792,9.561c0,2.32,1.585,4.001,3.77,4.001
	c2.127,0,3.654-1.662,3.654-4.021c0-2.3-1.547-3.963-3.693-3.963C69.436,5.579,67.792,7.339,67.792,9.561"/>
<path fill="#D1D2D3" d="M86.779,6.449c-0.232-0.154-0.425-0.251-0.541-0.329c-0.6-0.309-1.373-0.502-2.088-0.502
	c-2.282,0-4.002,1.74-4.002,4.021c0,2.242,1.682,3.904,3.904,3.904c0.504,0,1.006-0.076,1.509-0.25
	c0.425-0.156,0.677-0.291,1.218-0.658l0.445,0.967c-0.291,0.174-0.504,0.311-0.658,0.387c-0.734,0.367-1.662,0.6-2.571,0.6
	c-2.899,0-5.007-2.068-5.007-4.93c0-2.899,2.184-5.065,5.182-5.065c0.657,0,1.295,0.136,1.875,0.31
	c0.405,0.135,0.637,0.212,1.18,0.541L86.779,6.449z"/>
<path fill="#D1D2D3" d="M97.066,4.883v5.684c0,0.58-0.039,1.045-0.135,1.432c-0.349,1.527-1.817,2.57-3.617,2.57
	c-1.023,0-2.088-0.387-2.725-1.025c-0.734-0.715-0.986-1.527-0.986-2.977V4.883h1.103v5.684c0,0.426,0.019,0.813,0.077,1.102
	c0.251,1.141,1.218,1.857,2.552,1.857c1.759,0,2.59-0.969,2.59-2.959V4.883H97.066z"/>
<path fill="#7294A4" d="M98.866,6.7V4.883h1.392V2.408h2.146v2.475h2.475V6.7h-2.475v4.175c0,0.291,0,0.639,0.019,0.793
	c0.039,0.658,0.484,1.045,1.218,1.045c0.33,0,0.619-0.059,1.045-0.232l0.387,1.74c-0.813,0.232-1.373,0.309-1.992,0.309
	c-1.005,0-1.836-0.367-2.339-1.064c-0.425-0.559-0.483-0.889-0.483-2.318V6.7H98.866z"/>
<path fill="#7294A4" d="M106.426,14.279V4.883h2.146v1.702c0.445-1.276,1.392-1.934,2.687-1.934c0.329,0,0.562,0.02,0.947,0.117
	l-0.483,2.203c-0.348-0.135-0.599-0.193-0.908-0.193c-0.715,0-1.295,0.271-1.74,0.812c-0.405,0.483-0.502,0.87-0.502,1.817v4.873
	H106.426z"/>
<path fill="#7294A4" d="M114.76,10.373c0.252,1.566,1.275,2.514,2.726,2.514c1.063,0,2.088-0.658,2.745-1.721l1.701,1.063
	c-1.121,1.605-2.493,2.359-4.446,2.359c-2.919,0-4.931-2.01-4.931-4.91c0-2.919,2.07-5.046,4.892-5.046
	c2.784,0,4.756,2.068,4.756,5.026c0,0.194,0,0.426-0.038,0.715H114.76z M114.76,8.808h5.181c-0.097-1.547-1.063-2.513-2.513-2.513
	C116.035,6.295,115.03,7.222,114.76,8.808"/>
<path fill="#7294A4" d="M124.506,14.279V4.883h2.146v1.451c0.696-1.141,1.7-1.741,3.016-1.741c0.966,0,1.856,0.387,2.417,1.006
	c0.58,0.657,0.754,1.353,0.754,2.726v5.955h-2.146V8.866c0-0.425-0.021-0.735-0.06-0.967c-0.135-0.85-0.889-1.43-1.797-1.43
	c-1.354,0-2.185,1.024-2.185,2.687v5.124H124.506z"/>
<path fill="#7294A4" d="M142.854,0.34H145v13.939h-2.146v-1.393c-0.619,1.141-1.625,1.682-3.152,1.682
	c-2.667,0-4.504-2.029-4.504-4.929c0-2.881,1.952-5.008,4.601-5.008c1.373,0,2.301,0.465,3.056,1.586V0.34z M137.422,9.639
	c0,1.779,1.16,3.054,2.803,3.054c1.644,0,2.746-1.275,2.746-3.131c0-1.799-1.142-3.055-2.766-3.055
	C138.582,6.507,137.422,7.822,137.422,9.639"/>
<path fill="#D1D2D3" d="M8.002,6.449C7.771,6.294,7.578,6.198,7.461,6.12C6.862,5.811,6.088,5.618,5.374,5.618
	c-2.282,0-4.002,1.74-4.002,4.021c0,2.242,1.682,3.904,3.905,3.904c0.503,0,1.006-0.076,1.508-0.25
	c0.425-0.156,0.677-0.291,1.218-0.658l0.445,0.967c-0.29,0.174-0.503,0.311-0.658,0.387c-0.734,0.367-1.662,0.6-2.571,0.6
	c-2.899,0-5.007-2.068-5.007-4.93c0-2.899,2.184-5.065,5.181-5.065c0.658,0,1.296,0.136,1.876,0.31
	c0.405,0.135,0.637,0.212,1.179,0.541L8.002,6.449z"/>
<path fill="#D1D2D3" d="M9.068,4.883h1.276l2.919,6.844c0.193,0.465,0.29,0.773,0.406,1.314c0.077-0.367,0.136-0.658,0.213-0.813
	l0.251-0.58l2.823-6.766h1.237l-4.388,10.246l-0.252,0.58c-0.387,0.908-0.502,1.104-0.812,1.488
	c-0.464,0.619-1.198,0.928-2.127,0.928c-0.483,0-0.85-0.057-1.449-0.213l0.27-1.023c0.464,0.135,0.812,0.193,1.16,0.193
	c0.715,0,1.257-0.367,1.624-1.045c0.251-0.482,0.541-1.139,0.89-1.971L9.068,4.883z"/>
<path fill="#D1D2D3" d="M19.664,14.279V4.883h1.102v1.914c0.503-1.373,1.489-2.146,2.765-2.146c0.347,0,0.58,0.039,0.986,0.155
	l-0.387,1.179c-0.309-0.135-0.503-0.174-0.774-0.174c-1.526,0-2.59,1.315-2.59,3.171v5.297H19.664z"/>
<path fill="#D1D2D3" d="M33.449,4.883h1.102v9.396h-1.102v-1.857c-0.213,0.367-0.29,0.523-0.483,0.736
	c-0.793,0.906-1.953,1.41-3.268,1.41c-2.764,0-4.775-2.088-4.775-4.968c0-2.803,2.088-5.007,4.775-5.007
	c1.237,0,2.398,0.484,3.19,1.334c0.194,0.213,0.329,0.367,0.561,0.773V4.883z M26.083,9.561c0,2.32,1.586,4.001,3.77,4.001
	c2.127,0,3.654-1.662,3.654-4.021c0-2.3-1.547-3.963-3.693-3.963C27.726,5.579,26.083,7.339,26.083,9.561"/>
<path fill="#D1D2D3" d="M37.801,14.279V4.883h1.102V6.7c0.638-1.372,1.76-2.107,3.229-2.107c0.966,0,1.875,0.426,2.455,1.083
	c0.541,0.638,0.715,1.237,0.715,2.687v5.917H44.2v-5.78c0-0.445-0.019-0.813-0.077-1.064c-0.135-1.101-1.083-1.856-2.301-1.856
	c-1.759,0-2.919,1.411-2.919,3.519v5.182H37.801z"/>
<path fill="#D1D2D3" d="M56.556,4.883h1.102v9.396h-1.102v-1.857c-0.213,0.367-0.29,0.523-0.483,0.736
	c-0.793,0.906-1.953,1.41-3.268,1.41c-2.765,0-4.775-2.088-4.775-4.968c0-2.803,2.088-5.007,4.775-5.007
	c1.238,0,2.398,0.484,3.19,1.334c0.194,0.213,0.329,0.367,0.561,0.773V4.883z M49.19,9.561c0,2.32,1.585,4.001,3.77,4.001
	c2.127,0,3.654-1.662,3.654-4.021c0-2.3-1.547-3.963-3.693-3.963C50.833,5.579,49.19,7.339,49.19,9.561"/>
</svg>
