<?xml version="1.0" encoding="utf-8"?>
<!-- Generator: Adobe Illustrator 16.0.0, SVG Export Plug-In . SVG Version: 6.00 Build 0)  -->
<!DOCTYPE svg PUBLIC "-//W3C//DTD SVG 1.1//EN" "http://www.w3.org/Graphics/SVG/1.1/DTD/svg11.dtd">
<svg version="1.1" id="Layer_1" xmlns="http://www.w3.org/2000/svg" xmlns:xlink="http://www.w3.org/1999/xlink" x="0px" y="0px"
	 width="175px" height="22px" viewBox="0 0 175 22" enable-background="new 0 0 175 22" xml:space="preserve">
<path fill="#7294A4" d="M90.578,5.755h1.328v11.329h-1.328v-2.238c-0.257,0.443-0.35,0.629-0.583,0.885
	c-0.954,1.098-2.354,1.703-3.939,1.703c-3.334,0-5.757-2.518-5.757-5.991c0-3.38,2.517-6.038,5.757-6.038
	c1.492,0,2.89,0.583,3.846,1.609c0.232,0.256,0.396,0.443,0.676,0.932V5.755z M81.697,11.396c0,2.797,1.911,4.825,4.545,4.825
	c2.564,0,4.406-2.004,4.406-4.848c0-2.773-1.865-4.778-4.453-4.778C83.678,6.594,81.697,8.715,81.697,11.396"/>
<path fill="#7294A4" d="M104.59,7.643c-0.279-0.186-0.514-0.303-0.652-0.396c-0.723-0.373-1.656-0.606-2.518-0.606
	c-2.751,0-4.825,2.098-4.825,4.849c0,2.704,2.028,4.709,4.708,4.709c0.605,0,1.212-0.096,1.819-0.305
	c0.512-0.186,0.815-0.35,1.468-0.793l0.536,1.166c-0.349,0.209-0.606,0.373-0.792,0.467c-0.887,0.443-2.006,0.723-3.1,0.723
	c-3.498,0-6.039-2.494-6.039-5.945c0-3.496,2.635-6.107,6.248-6.107c0.793,0,1.562,0.164,2.26,0.373
	c0.49,0.164,0.771,0.257,1.423,0.653L104.59,7.643z"/>
<path fill="#7294A4" d="M116.992,5.755v6.853c0,0.699-0.047,1.26-0.162,1.727c-0.421,1.842-2.191,3.1-4.359,3.1
	c-1.236,0-2.518-0.467-3.287-1.236c-0.887-0.861-1.188-1.842-1.188-3.59V5.755h1.327v6.853c0,0.514,0.022,0.98,0.095,1.33
	c0.303,1.375,1.467,2.238,3.076,2.238c2.12,0,3.123-1.166,3.123-3.568V5.755H116.992z"/>
<path fill="#7294A4" d="M119.162,7.946V5.755h1.679V2.771h2.588v2.984h2.983v2.191h-2.983v5.035c0,0.352,0,0.77,0.022,0.957
	c0.047,0.791,0.584,1.258,1.469,1.258c0.396,0,0.746-0.068,1.259-0.279l0.466,2.098c-0.979,0.279-1.654,0.373-2.4,0.373
	c-1.213,0-2.215-0.443-2.82-1.283c-0.514-0.674-0.583-1.07-0.583-2.797V7.946H119.162z"/>
<path fill="#7294A4" d="M128.277,17.084V5.755h2.588v2.051c0.536-1.538,1.678-2.331,3.239-2.331c0.397,0,0.677,0.023,1.142,0.14
	l-0.582,2.657c-0.42-0.163-0.723-0.233-1.094-0.233c-0.863,0-1.563,0.326-2.1,0.979c-0.489,0.583-0.605,1.049-0.605,2.191v5.875
	H128.277z"/>
<path fill="#7294A4" d="M138.325,12.375c0.304,1.889,1.538,3.031,3.286,3.031c1.283,0,2.518-0.793,3.311-2.074l2.051,1.281
	c-1.352,1.934-3.007,2.844-5.361,2.844c-3.52,0-5.943-2.424-5.943-5.92c0-3.521,2.494-6.084,5.896-6.084
	c3.357,0,5.734,2.494,5.734,6.06c0,0.233,0,0.513-0.046,0.863H138.325z M138.325,10.487h6.247c-0.117-1.865-1.282-3.03-3.03-3.03
	C139.863,7.458,138.652,8.575,138.325,10.487"/>
<path fill="#7294A4" d="M150.076,17.084V5.755h2.586v1.748c0.84-1.375,2.051-2.098,3.638-2.098c1.165,0,2.237,0.466,2.913,1.212
	c0.699,0.793,0.908,1.632,0.908,3.287v7.18h-2.586v-6.526c0-0.513-0.023-0.886-0.07-1.166c-0.163-1.026-1.072-1.725-2.168-1.725
	c-1.631,0-2.635,1.236-2.635,3.24v6.177H150.076z"/>
<path fill="#7294A4" d="M172.198,0.277h2.587v16.807h-2.587v-1.678c-0.745,1.375-1.958,2.027-3.8,2.027
	c-3.216,0-5.432-2.447-5.432-5.944c0-3.473,2.354-6.037,5.549-6.037c1.654,0,2.773,0.559,3.683,1.911V0.277z M165.648,11.49
	c0,2.143,1.398,3.682,3.38,3.682s3.31-1.539,3.31-3.776c0-2.167-1.375-3.683-3.334-3.683C167.047,7.713,165.648,9.298,165.648,11.49
	"/>
<path fill="#7294A4" d="M9.609,7.643C9.331,7.456,9.096,7.34,8.957,7.247C8.234,6.874,7.302,6.641,6.439,6.641
	c-2.751,0-4.825,2.098-4.825,4.849c0,2.704,2.028,4.709,4.708,4.709c0.606,0,1.213-0.096,1.819-0.305
	c0.512-0.186,0.815-0.35,1.468-0.793l0.536,1.166c-0.349,0.209-0.606,0.373-0.792,0.467c-0.886,0.443-2.005,0.723-3.1,0.723
	c-3.497,0-6.038-2.494-6.038-5.945c0-3.496,2.634-6.107,6.247-6.107c0.793,0,1.562,0.164,2.262,0.373
	c0.489,0.164,0.769,0.257,1.421,0.653L9.609,7.643z"/>
<path fill="#7294A4" d="M10.894,5.755h1.538l3.52,8.253c0.233,0.559,0.35,0.932,0.489,1.584c0.094-0.443,0.164-0.793,0.257-0.979
	L17,13.914l3.403-8.159h1.492l-5.291,12.354l-0.303,0.699c-0.467,1.096-0.606,1.328-0.979,1.795
	c-0.56,0.746-1.445,1.119-2.565,1.119c-0.582,0-1.025-0.07-1.748-0.256l0.327-1.236c0.559,0.164,0.979,0.232,1.398,0.232
	c0.863,0,1.515-0.441,1.958-1.258c0.303-0.582,0.653-1.375,1.073-2.377L10.894,5.755z"/>
<path fill="#7294A4" d="M23.669,17.084V5.755h1.329v2.307c0.606-1.655,1.795-2.587,3.333-2.587c0.419,0,0.699,0.047,1.189,0.186
	l-0.467,1.422c-0.372-0.163-0.606-0.209-0.932-0.209c-1.841,0-3.123,1.585-3.123,3.822v6.388H23.669z"/>
<path fill="#7294A4" d="M40.29,5.755h1.328v11.329H40.29v-2.238c-0.257,0.443-0.35,0.629-0.583,0.885
	c-0.956,1.098-2.354,1.703-3.939,1.703c-3.333,0-5.757-2.518-5.757-5.991c0-3.38,2.517-6.038,5.757-6.038
	c1.491,0,2.89,0.583,3.846,1.609c0.233,0.256,0.396,0.442,0.676,0.932V5.755z M31.409,11.396c0,2.797,1.912,4.825,4.545,4.825
	c2.564,0,4.406-2.004,4.406-4.848c0-2.773-1.865-4.778-4.452-4.778C33.39,6.594,31.409,8.715,31.409,11.396"/>
<path fill="#7294A4" d="M45.537,17.084V5.755h1.329v2.191c0.769-1.655,2.121-2.541,3.892-2.541c1.166,0,2.261,0.513,2.96,1.306
	c0.653,0.769,0.863,1.491,0.863,3.24v7.132h-1.329v-6.97c0-0.537-0.023-0.98-0.093-1.283c-0.163-1.328-1.305-2.237-2.773-2.237
	c-2.122,0-3.52,1.701-3.52,4.242v6.248H45.537z"/>
<path fill="#7294A4" d="M68.15,5.755h1.328v11.329H68.15v-2.238c-0.256,0.443-0.349,0.629-0.583,0.885
	c-0.955,1.098-2.354,1.703-3.939,1.703c-3.334,0-5.757-2.518-5.757-5.991c0-3.38,2.517-6.038,5.757-6.038
	c1.492,0,2.89,0.583,3.846,1.609c0.233,0.256,0.396,0.442,0.676,0.932V5.755z M59.269,11.396c0,2.797,1.911,4.825,4.546,4.825
	c2.563,0,4.405-2.004,4.405-4.848c0-2.773-1.865-4.778-4.453-4.778C61.25,6.594,59.269,8.715,59.269,11.396"/>
</svg>
