<?xml version="1.0" encoding="utf-8"?>
<svg version="1.1" width="128" height="128" xmlns="http://www.w3.org/2000/svg" viewBox="0 0 520 520">
	<g transform="translate(130,0)">
		<g transform="rotate(90,130,260">
			<path fill="#FFFFFF" stroke="#231F20" stroke-width="4.5" d="M44.563,15.715c-9.238,3.802-11.412,9.502-13.043,17.105c-5.435,7.738-7.473,20.566-7.473,33.396c0,5.704,0.951,54.582,0.951,64.352c0,20.092-1.087,73.31-1.087,99.919c0,26.61,1.087,104.265,1.087,133.59c0,29.324-1.086,73.453,1.087,89.202c2.173,15.749,11.956,30.811,15.217,34.612c3.261,3.801,28.19,21.721,90.142,21.721s86.881-17.92,90.142-21.721c3.26-3.802,13.043-18.864,15.216-34.612c2.174-15.748,1.087-59.878,1.087-89.202c0-29.325,1.087-106.979,1.087-133.59c0-26.609-1.087-79.827-1.087-99.919c0-9.771,0.951-58.648,0.951-64.352c0-12.829-2.038-25.658-7.473-33.396c-1.63-7.604-3.805-13.304-13.042-17.105c-9.238-3.802-26.832-10.59-86.881-10.59C71.394,5.125,53.8,11.913,44.563,15.715z"/>
			<path fill="none" stroke="#231F20" stroke-width="0.8506" d="M30.162,461.689c0-13.848-0.563-52.549-5.173-92.458"/>
			<linearGradient id="SVGID_1_" gradientUnits="userSpaceOnUse" x1="21.4616" y1="250.8172" x2="24.1432" y2="250.8172">
				<stop  offset="0" style="stop-color:#34373A"/>
				<stop  offset="0.2647" style="stop-color:#868484"/>
				<stop  offset="1" style="stop-color:#34373A"/>
			</linearGradient>
			<path fill="url(#SVGID_1_)" stroke="#231F20" stroke-width="1.9138" d="M23.926,236.464c-1.701,3.658-2.465,8.805-2.465,13.871c0,6.487,0.824,11.61,2.682,14.836C24.039,254.05,23.957,244.072,23.926,236.464z"/>
			<linearGradient id="SVGID_2_" gradientUnits="userSpaceOnUse" x1="21.4704" y1="211.7684" x2="24.192" y2="211.7684">
				<stop  offset="0" style="stop-color:#34373A"/>
				<stop  offset="0.2647" style="stop-color:#868484"/>
				<stop  offset="1" style="stop-color:#34373A"/>
			</linearGradient>
			<path fill="url(#SVGID_2_)" stroke="#231F20" stroke-width="1.9138" d="M24.192,197.367c-1.884,3.679-2.722,9.094-2.722,14.413c0,6.205,0.761,11.147,2.45,14.391C23.951,217.979,24.056,207.946,24.192,197.367z"/>
			<path fill="none" stroke="#231F20" stroke-width="0.8506" d="M24.999,130.569c0-20.092,4.12-86.546,6.521-97.748"/>
			<path fill="none" stroke="#231F20" stroke-width="0.8506" d="M28.686,118.781c1.007-23.117,3.18-55.975,4.953-71.319c0.356-3.079,5.488-1.812,6.915,5.925c1.427,7.741,3.872,17.105,3.872,68.628"/>
			<path fill="none" stroke="#231F20" stroke-width="0.8506" d="M30.304,118.781c1.007-23.117,3.18-55.975,4.953-71.319"/>
			<path fill="none" stroke="#231F20" stroke-width="0.8506" d="M27.947,341.539c-0.296-34.082-0.908-79.963-0.908-101.004c0-3.681,0.378-5.499,9.848-5.499c5.081,0,6.153,1.46,6.153,1.46"/>
			<path fill="none" stroke="#231F20" stroke-width="0.8506" d="M32.9,135.453c0,0.98-0.021,1.889-0.021,2.718c0,15.445-0.939,50.462-0.939,77.923c0,1.837,2.811,2.362,8.818,0.208c2.643-0.948,3.749-3.734,3.749-6.211c0-2.478,0-70.357,0-70.357s-1.507-6.11-5.176-6.314c-3.668-0.203-3.668-0.407-4.891-0.407C33.218,133.012,32.9,133.411,32.9,135.453z"/>
			<path fill="none" stroke="#231F20" stroke-width="0.8506" d="M39.128,376.16c-4.482,0-6.256-9.623-6.27-12.628"/>
			<path fill="none" stroke="#231F20" stroke-width="0.8506" d="M29.754,138.171"/>
			<path fill="none" stroke="#231F20" stroke-width="0.8506" d="M19.972,162.744"/>
			<path fill="none" stroke="#231F20" stroke-width="0.8506" d="M25.199,120.495c3.487-1.714,6.593-2.146,10.669-1.331c4.075,0.814,14.469,1.833,14.469,11.607c0,9.775,0,84.511,0,94.693c0,10.183-1.427,71.683-5.299,94.286c-3.871,22.604-6.521,43.579-19.156,46.023"/>
			<path fill="none" stroke="#231F20" stroke-width="0.8506" d="M44.63,208.767c0-10.182,0-58.401,0-68.176c0-9.774-10.312-11.608-14.469-11.608c-1.834,0-1.978,2.603-2.038,9.323c-0.217,24.03-0.984,54.273-0.984,82.27c0,2.241,3.023,1.834,8.117,0.001C40.351,218.745,44.63,217.931,44.63,208.767z"/>
			<path fill="none" stroke="#231F20" stroke-width="0.8506" d="M28.419,354.778v6.968c9.037-6.141,11.684-25.114,13.359-45.049"/>
			<path fill="none" stroke="#231F20" stroke-width="0.8506" d="M23.912,230.488c8.429-3.789,14.337-4.372,26.425-4.566"/>
			<path fill="none" stroke="#231F20" stroke-width="0.8506" d="M57.469,39.336c0,9.775,0,175.947,0,186.129c0,10.183-1.427,71.683-5.299,94.286"/>
			<path fill="none" stroke="#231F20" stroke-width="0.8506" d="M53.393,39.336c0,9.775,0,175.947,0,186.129c0,10.183-1.427,71.683-5.299,94.286"/>
			<path fill="none" stroke="#231F20" stroke-width="0.8506" d="M60.729,43.816c0,9.775,0,171.467,0,181.649c0,9.983-1.371,69.296-5.073,92.917"/>
			<path fill="none" stroke="#231F20" stroke-width="0.8506" d="M36.479,455.377c0,0-3.465-55.188-3.465-65.777c0-10.589,2.445-11.811,4.076-18.531c1.63-6.72,7.336-31.158,9.578-44.801"/>
			<linearGradient id="SVGID_3_" gradientUnits="userSpaceOnUse" x1="74.5023" y1="497.9024" x2="31.53" y2="454.9301">
				<stop  offset="0" style="stop-color:#8EC5DF"/>
				<stop  offset="1" style="stop-color:#FFFFFF"/>
			</linearGradient>
			<path fill="url(#SVGID_3_)" stroke="#231F20" stroke-width="0.8506" d="M35.052,461.079c0,4.277,0.611,12.422,5.299,17.309c4.687,4.888,13.042,10.793,19.155,14.051c0,0-0.814,0.408,2.446,2.038c3.26,1.628,9.374,3.664,10.801,3.462c1.426-0.204,0.814-2.444-0.204-5.702c-1.02-3.258-4.279-12.218-7.133-16.902c-2.853-4.684-14.876-16.292-18.545-17.92C43.204,455.784,35.052,452.676,35.052,461.079z"/>
			<line fill="none" stroke="#231F20" stroke-width="0.8506" x1="46.872" y1="457.413" x2="38.72" y2="397.339"/>
			<linearGradient id="SVGID_4_" gradientUnits="userSpaceOnUse" x1="43.6907" y1="35.7836" x2="58.2496" y2="21.2247">
				<stop  offset="0" style="stop-color:#34373A"/>
				<stop  offset="0.2647" style="stop-color:#868484"/>
				<stop  offset="1" style="stop-color:#34373A"/>
			</linearGradient>
			<path fill="url(#SVGID_4_)" stroke="#231F20" stroke-width="0.8506" d="M33.294,32.114l20.1,7.222h4.076c0,0,0-2.968,0-4.146c0-1.178-4.5-9.671-6.295-12.192c-0.876-1.233-2.604-2.938-4.244-4.413C38.914,21.893,35.196,26.077,33.294,32.114z"/>
			<linearGradient id="SVGID_5_" gradientUnits="userSpaceOnUse" x1="124.4479" y1="24.8106" x2="151.0758" y2="24.8106">
				<stop  offset="0" style="stop-color:#F59579"/>
				<stop  offset="1" style="stop-color:#CD181F"/>
			</linearGradient>
			<path fill="url(#SVGID_5_)" stroke="#231F20" stroke-width="0.8506" d="M150.125,25.761c0.525,0,0.951-0.423,0.951-0.949l0,0c0-0.525-0.426-0.952-0.951-0.952h-24.726c-0.525,0-0.951,0.427-0.951,0.952l0,0c0,0.526,0.426,0.949,0.951,0.949H150.125z"/>
			<path fill="none" stroke="#231F20" stroke-width="0.8506" d="M118.469,43.414c-1.901-5.977-3.495-11.186-3.514-15.233c-0.018-4.047,0-15.379,0-15.379"/>
			<path fill="none" stroke="#231F20" stroke-width="0.8506" d="M232.725,461.689c0-13.848,0.564-52.549,5.173-92.458"/>
			<linearGradient id="SVGID_6_" gradientUnits="userSpaceOnUse" x1="34.4997" y1="495.2" x2="228.3874" y2="495.2">
				<stop  offset="0" style="stop-color:#34373A"/>
				<stop  offset="0.2647" style="stop-color:#868484"/>
				<stop  offset="1" style="stop-color:#34373A"/>
			</linearGradient>
			<path fill="url(#SVGID_6_)" stroke="#231F20" stroke-width="1.9138" d="M221.586,487.891c-3.261,3.801-28.19,21.721-90.142,21.721s-86.881-17.92-90.142-21.721c-1.419-1.656-4.076-5.448-6.802-10.499H34.5c2.183,10.364,8.297,18.917,16.041,22.174c7.743,3.258,37.292,13.441,80.903,13.441c43.61,0,73.159-10.183,80.903-13.441c7.744-3.258,13.857-11.811,16.04-22.174h-0.001C225.661,482.443,223.004,486.236,221.586,487.891z"/>
			<path fill="none" stroke="#231F20" stroke-width="0.8506" d="M188.708,494.679c-9.781,2.444-43.406,10.59-57.264,10.59c-13.857,0-47.482-8.146-57.265-10.59"/>
			<path fill="none" stroke="#231F20" stroke-width="0.8506" d="M197.471,475.334c-9.782,2.444-52.17,12.624-66.027,12.624c-13.857,0-56.245-10.181-66.027-12.624"/>
			<linearGradient id="SVGID_7_" gradientUnits="userSpaceOnUse" x1="238.7438" y1="250.8172" x2="241.4254" y2="250.8172">
				<stop  offset="0" style="stop-color:#34373A"/>
				<stop  offset="0.2647" style="stop-color:#868484"/>
				<stop  offset="1" style="stop-color:#34373A"/>
			</linearGradient>
			<path fill="url(#SVGID_7_)" stroke="#231F20" stroke-width="1.9138" d="M238.962,236.464c1.7,3.658,2.464,8.805,2.464,13.871c0,6.487-0.823,11.61-2.682,14.836C238.849,254.05,238.93,244.072,238.962,236.464z"/>
			<path fill="none" stroke="#231F20" stroke-width="0.8506" d="M237.888,130.569c0-20.092-4.12-86.546-6.521-97.748"/>
			<path fill="none" stroke="#231F20" stroke-width="0.8506" d="M234.94,341.539c0.297-34.082,0.909-79.963,0.909-101.004c0-3.681-0.378-5.499-9.849-5.499c-5.08,0-6.153,1.46-6.153,1.46"/>
			<path fill="none" stroke="#231F20" stroke-width="0.8506" d="M226.409,52.979c2.547,41.646,3.6,84.363,3.6,85.192c0,15.445,0.938,50.462,0.938,77.923c0,1.837-2.811,2.362-8.818,0.208c-2.643-0.948-3.748-3.835-3.748-6.313"/>
			<path fill="none" stroke="#231F20" stroke-width="0.8506" d="M223.759,376.16c4.483,0,6.256-9.623,6.27-12.628"/>
			<path fill="none" stroke="#231F20" stroke-width="0.8506" d="M233.133,138.171"/>
			<path fill="none" stroke="#231F20" stroke-width="0.8506" d="M242.915,162.744"/>
			<path fill="none" stroke="#231F20" stroke-width="0.8506" d="M212.55,225.465c0,10.183,1.427,71.683,5.299,94.286c3.872,22.604,6.521,43.579,19.156,46.023"/>
			<path fill="none" stroke="#231F20" stroke-width="0.8506" d="M234.763,138.306c0.217,24.03,0.984,54.273,0.984,82.27c0,2.241-3.022,1.834-8.116,0.001c-5.095-1.833-9.374-2.647-9.374-11.811c0-10.182,0-58.401,0-68.176l0.203-18.576c0-51.523,2.445-60.888,3.872-68.628c1.427-7.737,6.559-9.004,6.915-5.925c1.773,15.344,3.946,48.203,4.953,71.319L234.763,138.306z"/>
			<path fill="none" stroke="#231F20" stroke-width="0.8506" d="M234.469,354.778v6.968c-9.038-6.141-11.685-25.114-13.359-45.049"/>
			<path fill="none" stroke="#231F20" stroke-width="0.8506" d="M238.975,230.488c-8.429-3.789-14.337-4.372-26.425-4.566"/>
			<path fill="none" stroke="#231F20" stroke-width="0.8506" d="M205.419,39.336c0,9.775,0,175.947,0,186.129c0,10.183,1.426,71.683,5.298,94.286"/>
			<path fill="none" stroke="#231F20" stroke-width="0.8506" d="M209.494,39.336c0,9.775,0,175.947,0,186.129c0,10.183,1.427,71.683,5.299,94.286"/>
			<path fill="none" stroke="#231F20" stroke-width="0.8506" d="M202.158,43.816c0,9.775,0,171.467,0,181.649c0,9.983,1.371,69.296,5.074,92.917"/>
			<linearGradient id="SVGID_8_" gradientUnits="userSpaceOnUse" x1="37.894" y1="371.675" x2="224.9937" y2="371.675">
				<stop  offset="0" style="stop-color:#34373A"/>
				<stop  offset="0.2647" style="stop-color:#868484"/>
				<stop  offset="1" style="stop-color:#34373A"/>
			</linearGradient>
			<path fill="url(#SVGID_8_)" stroke="#231F20" stroke-width="0.8506" d="M131.444,327.286c-23.436,0-56.926-4.361-69.491-7.738c-6.252-1.681-11.859-1.201-13.082,5.315c-1.223,6.517-7.457,40.235-9.743,51.297c-1.593,7.712-1.549,12.614-0.407,21.179c0.815,6.109,31.384,27.288,92.724,27.288s91.908-21.179,92.723-27.288c1.143-8.565,1.187-13.466-0.407-21.179c-2.286-11.062-8.521-44.781-9.743-51.297c-1.223-6.516-6.83-6.996-13.081-5.315C188.369,322.925,154.879,327.286,131.444,327.286z"/>
			<linearGradient id="SVGID_9_" gradientUnits="userSpaceOnUse" x1="39.4962" y1="366.633" x2="223.577" y2="366.633">
				<stop  offset="0" style="stop-color:#7EA5B8"/>
				<stop  offset="0.1953" style="stop-color:#93D8F7"/>
				<stop  offset="0.2663" style="stop-color:#CDE1EC"/>
				<stop  offset="0.3491" style="stop-color:#82BDD7"/>
				<stop  offset="1" style="stop-color:#81B1C7"/>
			</linearGradient>
			<path fill="url(#SVGID_9_)" stroke="#231F20" stroke-width="1.9138" d="M131.444,329.042c-23.159,0-56.255-4.272-68.673-7.581c-6.179-1.646-11.72-1.176-12.929,5.207c-1.208,6.384-7.743,39.345-9.628,50.254c-0.865,5.015-0.883,5.717-0.402,8.956c0.885,5.975,31.014,26.733,91.632,26.733c60.617,0,90.76-20.757,91.632-26.733c0.596-4.088,0.873-2.835-0.403-8.956c-2.258-10.838-8.42-43.871-9.628-50.254c-1.209-6.384-6.75-6.853-12.927-5.207C187.7,324.77,154.604,329.042,131.444,329.042z"/>
			<path fill="none" stroke="#231F20" stroke-width="0.8506" d="M226.409,455.377c0,0,3.464-55.188,3.464-65.777c0-10.589-2.445-11.811-4.075-18.531c-1.631-6.72-7.337-31.158-9.578-44.801"/>
			<linearGradient id="SVGID_10_" gradientUnits="userSpaceOnUse" x1="190.1698" y1="496.1182" x2="226.3408" y2="459.9472">
				<stop  offset="0" style="stop-color:#8EC5DF"/>
				<stop  offset="1" style="stop-color:#FFFFFF"/>
			</linearGradient>
			<path fill="url(#SVGID_10_)" stroke="#231F20" stroke-width="0.8506" d="M227.835,461.079c0,4.277-0.611,12.422-5.298,17.309c-4.688,4.888-13.043,10.793-19.156,14.051c0,0,0.815,0.408-2.445,2.038c-3.261,1.628-9.374,3.664-10.801,3.462c-1.427-0.204-0.815-2.444,0.204-5.702c1.019-3.258,4.279-12.218,7.133-16.902c2.853-4.684,14.876-16.292,18.544-17.92C219.683,455.784,227.835,452.676,227.835,461.079z"/>
			<line fill="none" stroke="#231F20" stroke-width="0.8506" x1="216.015" y1="457.413" x2="224.167" y2="397.339"/>
			<linearGradient id="SVGID_11_" gradientUnits="userSpaceOnUse" x1="224.3824" y1="40.969" x2="205.67" y2="22.2566">
				<stop  offset="0" style="stop-color:#34373A"/>
				<stop  offset="0.2647" style="stop-color:#868484"/>
				<stop  offset="1" style="stop-color:#34373A"/>
			</linearGradient>
			<path fill="url(#SVGID_11_)" stroke="#231F20" stroke-width="0.8506" d="M229.594,32.114l-20.101,7.222h-4.075c0,0,0-2.968,0-4.146c0-1.178,4.5-9.671,6.295-12.192c0.875-1.233,2.604-2.938,4.243-4.413C223.973,21.893,227.692,26.077,229.594,32.114z"/>
			<path fill="none" stroke="#231F20" stroke-width="0.8506" d="M215.957,18.584c-8.938-1.732-26.418-5.91-84.513-5.91c-58.096,0-75.576,4.178-84.514,5.91"/>
			<path fill="none" stroke="#231F20" stroke-width="0.8506" d="M206.392,32.614c-10.634-1.949-30.492-4.566-74.948-4.566c-44.456,0-64.315,2.617-74.949,4.566"/>
			<path fill="none" stroke="#231F20" stroke-width="0.8506" d="M194.981,25.494c-12.243-1.49-31.505-2.846-63.537-2.846c-32.033,0-51.295,1.356-63.537,2.846"/>
			<path fill="none" stroke="#231F20" stroke-width="0.8506" d="M203.105,26.369c0,0-1.899,3.194,1.361-2.238c3.261-5.429-4.326-5.601-4.326-5.601c-12.452-1.627-32.837-3.219-68.696-3.219s-56.245,1.592-68.697,3.219c0,0-7.586,0.172-4.325,5.601c3.261,5.432,1.36,2.238,1.36,2.238"/>
			<line fill="none" stroke="#231F20" stroke-width="0.8506" x1="57.469" y1="44.067" x2="205.419" y2="44.067"/>
			<linearGradient id="SVGID_12_" gradientUnits="userSpaceOnUse" x1="3.2614" y1="343.3973" x2="27.3267" y2="343.3973">
				<stop  offset="0" style="stop-color:#34373A"/>
				<stop  offset="0.2647" style="stop-color:#868484"/>
				<stop  offset="1" style="stop-color:#34373A"/>
			</linearGradient>
			<path fill="url(#SVGID_12_)" stroke="#231F20" stroke-width="1.9138" d="M3.261,339.301c0-3.666,0-6.109,3.261-4.887c3.261,1.222,15.867,5.695,17.118,6.72c1.252,1.024,3.057,4.276,3.465,6.312c0.407,2.037,0.814,6.11-4.28,5.092c-5.095-1.019-15.896-6.72-17.729-8.35C3.261,342.56,3.261,340.722,3.261,339.301z"/>
			<path fill="#FFFFFF" stroke="#231F20" stroke-width="1.9138" d="M27.105,347.446c0.327,1.638,0.649,4.587-1.884,5.153c0.964,0.744,2.553,1.472,5.144,1.568h1.02c1.426-1.629,2.649-4.887,1.426-8.349l-6.62-0.924C26.618,345.795,26.956,346.702,27.105,347.446z"/>
			<linearGradient id="SVGID_13_" gradientUnits="userSpaceOnUse" x1="3.4909" y1="339.0545" x2="25.7399" y2="339.0545">
				<stop  offset="0" style="stop-color:#34373A"/>
				<stop  offset="0.2647" style="stop-color:#868484"/>
				<stop  offset="1" style="stop-color:#34373A"/>
			</linearGradient>
			<path fill="url(#SVGID_13_)" stroke="#231F20" stroke-width="1.9138" d="M3.491,335.629c4.769,1.978,19.822,8.162,22.249,8.38c-0.671-1.234-1.457-2.349-2.1-2.875c-1.251-1.025-13.857-5.499-17.118-6.72C4.584,333.687,3.809,334.276,3.491,335.629z"/>
			<linearGradient id="SVGID_14_" gradientUnits="userSpaceOnUse" x1="235.5607" y1="343.3973" x2="259.6255" y2="343.3973">
				<stop  offset="0" style="stop-color:#34373A"/>
				<stop  offset="0.2647" style="stop-color:#868484"/>
				<stop  offset="1" style="stop-color:#34373A"/>
			</linearGradient>
			<path fill="url(#SVGID_14_)" stroke="#231F20" stroke-width="1.9138" d="M259.626,339.301c0-3.666,0-6.109-3.261-4.887c-3.261,1.222-15.866,5.695-17.118,6.72c-1.251,1.024-3.057,4.276-3.464,6.312c-0.408,2.037-0.815,6.11,4.279,5.092c5.095-1.019,15.895-6.72,17.729-8.35C259.626,342.56,259.626,340.722,259.626,339.301z"/>
			<path fill="#FFFFFF" stroke="#231F20" stroke-width="1.9138" d="M235.783,347.446c-0.328,1.638-0.65,4.587,1.884,5.153c-0.965,0.744-2.554,1.472-5.145,1.568h-1.02c-1.426-1.629-2.648-4.887-1.426-8.349l6.62-0.924C236.27,345.795,235.931,346.702,235.783,347.446z"/>
			<linearGradient id="SVGID_15_" gradientUnits="userSpaceOnUse" x1="237.1481" y1="339.0545" x2="259.3961" y2="339.0545">
				<stop  offset="0" style="stop-color:#34373A"/>
				<stop  offset="0.2647" style="stop-color:#868484"/>
				<stop  offset="1" style="stop-color:#34373A"/>
			</linearGradient>
			<path fill="url(#SVGID_15_)" stroke="#231F20" stroke-width="1.9138" d="M259.396,335.629c-4.768,1.978-19.822,8.162-22.248,8.38c0.67-1.234,1.457-2.349,2.099-2.875c1.252-1.025,13.857-5.499,17.118-6.72C258.304,333.687,259.078,334.276,259.396,335.629z"/>
			<linearGradient id="SVGID_16_" gradientUnits="userSpaceOnUse" x1="31.5202" y1="18.9727" x2="231.3668" y2="18.9727">
				<stop  offset="0" style="stop-color:#34373A"/>
				<stop  offset="0.2647" style="stop-color:#868484"/>
				<stop  offset="1" style="stop-color:#34373A"/>
			</linearGradient>
			<path fill="url(#SVGID_16_)" stroke="#231F20" stroke-width="1.9138" d="M231.367,32.821c-1.63-7.604-3.805-13.304-13.042-17.105c-9.238-3.802-26.832-10.59-86.881-10.59c-60.05,0-77.644,6.789-86.881,10.59c-9.238,3.802-11.412,9.502-13.043,17.105l1.773-0.707c1.902-6.037,5.62-10.221,13.637-13.529c8.937-1.732,26.418-5.91,84.514-5.91c58.095,0,75.575,4.178,84.513,5.91c0.027,0.004,0.038,0.01,0.039,0.017c7.989,3.306,11.699,7.485,13.599,13.513L231.367,32.821z"/>
			<linearGradient id="SVGID_17_" gradientUnits="userSpaceOnUse" x1="31.8073" y1="289.9906" x2="44.4264" y2="289.9906">
				<stop  offset="0" style="stop-color:#7EA5B8"/>
				<stop  offset="0.1953" style="stop-color:#93D8F7"/>
				<stop  offset="0.2663" style="stop-color:#CDE1EC"/>
				<stop  offset="0.3491" style="stop-color:#82BDD7"/>
				<stop  offset="1" style="stop-color:#81B1C7"/>
			</linearGradient>
			<path fill="url(#SVGID_17_)" stroke="#231F20" stroke-width="0.8506" d="M38.062,343.562c1.871-7.84,2.906-17.241,3.716-26.865c1.938-23.078,2.648-64.554,2.648-74.736c0-2.85-1.34-5.94-4.075-5.499c-2.917,0.472-3.766,0.586-7.133,1.63c-1.39,0.431-1.411,0.789-1.411,6.523c0,22.817,0.633,66.039,0.908,98.145L38.062,343.562z"/>
			<linearGradient id="SVGID_18_" gradientUnits="userSpaceOnUse" x1="218.4606" y1="289.9906" x2="231.0797" y2="289.9906">
				<stop  offset="0" style="stop-color:#7EA5B8"/>
				<stop  offset="0.1953" style="stop-color:#93D8F7"/>
				<stop  offset="0.2663" style="stop-color:#CDE1EC"/>
				<stop  offset="0.3491" style="stop-color:#82BDD7"/>
				<stop  offset="1" style="stop-color:#81B1C7"/>
			</linearGradient>
			<path fill="url(#SVGID_18_)" stroke="#231F20" stroke-width="0.8506" d="M224.825,343.562c-1.871-7.84-2.906-17.241-3.715-26.865c-1.939-23.078-2.649-64.554-2.649-74.736c0-2.85,1.34-5.94,4.076-5.499c2.916,0.472,3.765,0.586,7.132,1.63c1.391,0.431,1.411,0.789,1.411,6.523c0,22.817-0.633,66.039-0.907,98.145L224.825,343.562z"/>
		</g>
	</g>
</svg>
